<?xml version="1.0" encoding="iso-8859-1"?>
<!-- Generator: Adobe Illustrator 19.0.0, SVG Export Plug-In . SVG Version: 6.00 Build 0)  -->
<svg version="1.1" id="Capa_1" xmlns="http://www.w3.org/2000/svg" xmlns:xlink="http://www.w3.org/1999/xlink" x="0px" y="0px"
	 viewBox="0 0 436.907 436.907" style="enable-background:new 0 0 436.907 436.907;" xml:space="preserve">
<circle style="fill:#EA8953;" cx="218.453" cy="218.453" r="218.453"/>
<path style="opacity:0.1;enable-background:new    ;" d="M432.963,259.711L263.718,90.467H132.372
	c-12.975,0-23.493,10.518-23.493,23.493v154.566c0,6.243,2.291,12.321,6.24,16.59l-0.03,0.015l0.243,0.243
	c0.143,0.15,0.29,0.292,0.437,0.437l146.665,146.665C348.695,414.844,416.394,346.355,432.963,259.711z"/>
<path style="fill:#44C4A1;" d="M263.718,124.105V90.467H132.372c-12.975,0-23.493,10.518-23.493,23.493v154.566
	c0,10.345,6.207,20.33,16.018,22.165h7.475h131.347h16.018V124.105H263.718z"/>
<path style="fill:#F6C358;" d="M133.706,124.105h140.691l-14.416-28.298H133.706c-7.814,0-14.149,6.335-14.149,14.149v0
	C119.557,117.77,125.892,124.105,133.706,124.105z"/>
<polygon style="fill:#DC8744;" points="140.786,124.105 140.786,176.357 154.1,160.473 167.415,176.357 167.415,124.105 "/>
<rect x="245.418" y="235.127" transform="matrix(-0.8027 0.5964 -0.5964 -0.8027 611.8365 305.8772)" style="fill:#64798A;" width="19.801" height="38.052"/>
<g transform="matrix(0.80267 -0.59642 0.59642 0.80267 -27.879 59.27)">
	
		<ellipse transform="matrix(-0.8027 -0.5964 0.5964 -0.8027 40.9388 547.8016)" style="fill:#FCD462;" cx="111.09" cy="267.128" rx="51.176" ry="51.176"/>
	
		<ellipse transform="matrix(-0.8027 -0.5964 0.5964 -0.8027 40.9388 547.8016)" style="fill:#E1E6E9;" cx="111.09" cy="267.128" rx="39.188" ry="39.188"/>
</g>
<path style="fill:#2F4859;" d="M323.981,339.342l-6.888,5.118c-4.445,3.303-10.725,2.377-14.028-2.068l-52.704-70.93l22.984-17.078
	l52.704,70.93C329.352,329.759,328.426,336.04,323.981,339.342z"/>
<path style="fill:#3A556A;" d="M250.36,271.462l50.145,67.486c4.716,6.347,13.684,7.669,20.031,2.953l0,0l-58.685-78.978
	L250.36,271.462z"/>
<g>
	<path style="fill:#FFFFFF;" d="M247.294,197.116c-0.75,0-1.49-0.345-1.968-0.995c-10.122-13.796-23.927-15.912-33.754-15.253
		c-1.311,0.09-2.501-0.926-2.594-2.27c-0.09-1.342,0.926-2.504,2.27-2.594c9.032-0.593,25.972,0.831,38.009,17.233
		c0.795,1.085,0.562,2.611-0.524,3.408C248.298,196.964,247.794,197.116,247.294,197.116z"/>
	<ellipse style="fill:#FFFFFF;" cx="252.008" cy="201.045" rx="2.639" ry="2.639"/>
</g>
<g>
</g>
<g>
</g>
<g>
</g>
<g>
</g>
<g>
</g>
<g>
</g>
<g>
</g>
<g>
</g>
<g>
</g>
<g>
</g>
<g>
</g>
<g>
</g>
<g>
</g>
<g>
</g>
<g>
</g>
</svg>
